<mxfile host="app.diagrams.net" modified="2023-03-28T17:32:34.943Z" agent="Mozilla/5.0 (Windows NT 10.0; Win64; x64) AppleWebKit/537.36 (KHTML, like Gecko) Chrome/111.0.0.0 Safari/537.36" etag="Z6zRKAOyw7-yL5Rrgi88" version="21.1.1" type="device">
  <diagram name="Página-1" id="8cwOfTqbjakKlKXhV1Qx">
    <mxGraphModel dx="1050" dy="581" grid="1" gridSize="10" guides="1" tooltips="1" connect="1" arrows="1" fold="1" page="1" pageScale="1" pageWidth="827" pageHeight="1169" math="0" shadow="0">
      <root>
        <mxCell id="0" />
        <mxCell id="1" parent="0" />
        <mxCell id="HDn32O2zMlAShSsE0nVU-3" style="edgeStyle=orthogonalEdgeStyle;rounded=0;orthogonalLoop=1;jettySize=auto;html=1;entryX=0.5;entryY=0;entryDx=0;entryDy=0;entryPerimeter=0;" parent="1" source="HDn32O2zMlAShSsE0nVU-1" target="HDn32O2zMlAShSsE0nVU-2" edge="1">
          <mxGeometry relative="1" as="geometry" />
        </mxCell>
        <mxCell id="HDn32O2zMlAShSsE0nVU-1" value="Início" style="strokeWidth=2;html=1;shape=mxgraph.flowchart.terminator;whiteSpace=wrap;" parent="1" vertex="1">
          <mxGeometry x="364" y="10" width="100" height="60" as="geometry" />
        </mxCell>
        <mxCell id="HDn32O2zMlAShSsE0nVU-12" style="edgeStyle=orthogonalEdgeStyle;rounded=0;orthogonalLoop=1;jettySize=auto;html=1;" parent="1" source="HDn32O2zMlAShSsE0nVU-2" target="HDn32O2zMlAShSsE0nVU-9" edge="1">
          <mxGeometry relative="1" as="geometry" />
        </mxCell>
        <mxCell id="HDn32O2zMlAShSsE0nVU-2" value="informe a nota 1" style="strokeWidth=2;html=1;shape=mxgraph.flowchart.display;whiteSpace=wrap;" parent="1" vertex="1">
          <mxGeometry x="364" y="90" width="100" height="60" as="geometry" />
        </mxCell>
        <mxCell id="hug6_IHefqoS9COVQc9g-7" style="edgeStyle=orthogonalEdgeStyle;rounded=0;orthogonalLoop=1;jettySize=auto;html=1;" edge="1" parent="1" source="HDn32O2zMlAShSsE0nVU-8" target="HDn32O2zMlAShSsE0nVU-14">
          <mxGeometry relative="1" as="geometry" />
        </mxCell>
        <mxCell id="HDn32O2zMlAShSsE0nVU-8" value="n3" style="html=1;strokeWidth=2;shape=manualInput;whiteSpace=wrap;rounded=1;size=26;arcSize=11;" parent="1" vertex="1">
          <mxGeometry x="364" y="500" width="100" height="60" as="geometry" />
        </mxCell>
        <mxCell id="hug6_IHefqoS9COVQc9g-3" style="edgeStyle=orthogonalEdgeStyle;rounded=0;orthogonalLoop=1;jettySize=auto;html=1;" edge="1" parent="1" source="HDn32O2zMlAShSsE0nVU-9" target="hug6_IHefqoS9COVQc9g-1">
          <mxGeometry relative="1" as="geometry" />
        </mxCell>
        <mxCell id="HDn32O2zMlAShSsE0nVU-9" value="n1" style="html=1;strokeWidth=2;shape=manualInput;whiteSpace=wrap;rounded=1;size=26;arcSize=11;" parent="1" vertex="1">
          <mxGeometry x="364" y="170" width="100" height="60" as="geometry" />
        </mxCell>
        <mxCell id="hug6_IHefqoS9COVQc9g-4" style="edgeStyle=orthogonalEdgeStyle;rounded=0;orthogonalLoop=1;jettySize=auto;html=1;" edge="1" parent="1" source="HDn32O2zMlAShSsE0nVU-10" target="hug6_IHefqoS9COVQc9g-2">
          <mxGeometry relative="1" as="geometry" />
        </mxCell>
        <mxCell id="HDn32O2zMlAShSsE0nVU-10" value="n2" style="html=1;strokeWidth=2;shape=manualInput;whiteSpace=wrap;rounded=1;size=26;arcSize=11;" parent="1" vertex="1">
          <mxGeometry x="364" y="340" width="100" height="60" as="geometry" />
        </mxCell>
        <mxCell id="hug6_IHefqoS9COVQc9g-8" style="edgeStyle=orthogonalEdgeStyle;rounded=0;orthogonalLoop=1;jettySize=auto;html=1;" edge="1" parent="1" source="HDn32O2zMlAShSsE0nVU-14" target="HDn32O2zMlAShSsE0nVU-25">
          <mxGeometry relative="1" as="geometry" />
        </mxCell>
        <mxCell id="HDn32O2zMlAShSsE0nVU-14" value="(n1 + n2 + n3) /3" style="rounded=1;whiteSpace=wrap;html=1;absoluteArcSize=1;arcSize=14;strokeWidth=2;" parent="1" vertex="1">
          <mxGeometry x="364" y="580" width="100" height="100" as="geometry" />
        </mxCell>
        <mxCell id="hug6_IHefqoS9COVQc9g-9" style="edgeStyle=orthogonalEdgeStyle;rounded=0;orthogonalLoop=1;jettySize=auto;html=1;" edge="1" parent="1" source="HDn32O2zMlAShSsE0nVU-25" target="HDn32O2zMlAShSsE0nVU-39">
          <mxGeometry relative="1" as="geometry" />
        </mxCell>
        <mxCell id="hug6_IHefqoS9COVQc9g-10" style="edgeStyle=orthogonalEdgeStyle;rounded=0;orthogonalLoop=1;jettySize=auto;html=1;" edge="1" parent="1" source="HDn32O2zMlAShSsE0nVU-25" target="HDn32O2zMlAShSsE0nVU-38">
          <mxGeometry relative="1" as="geometry" />
        </mxCell>
        <mxCell id="HDn32O2zMlAShSsE0nVU-25" value="A média é maior que 5 ?" style="strokeWidth=2;html=1;shape=mxgraph.flowchart.decision;whiteSpace=wrap;" parent="1" vertex="1">
          <mxGeometry x="343" y="720" width="142" height="110" as="geometry" />
        </mxCell>
        <mxCell id="HDn32O2zMlAShSsE0nVU-36" style="edgeStyle=orthogonalEdgeStyle;rounded=0;orthogonalLoop=1;jettySize=auto;html=1;entryX=1;entryY=0.5;entryDx=0;entryDy=0;entryPerimeter=0;exitX=0.5;exitY=1;exitDx=0;exitDy=0;exitPerimeter=0;" parent="1" source="HDn32O2zMlAShSsE0nVU-38" target="HDn32O2zMlAShSsE0nVU-35" edge="1">
          <mxGeometry relative="1" as="geometry">
            <mxPoint x="630" y="970" as="sourcePoint" />
            <Array as="points">
              <mxPoint x="630" y="1100" />
            </Array>
          </mxGeometry>
        </mxCell>
        <mxCell id="HDn32O2zMlAShSsE0nVU-29" value="sim" style="text;html=1;align=center;verticalAlign=middle;resizable=0;points=[];autosize=1;strokeColor=none;fillColor=none;" parent="1" vertex="1">
          <mxGeometry x="520" y="720" width="40" height="30" as="geometry" />
        </mxCell>
        <mxCell id="HDn32O2zMlAShSsE0nVU-37" style="edgeStyle=orthogonalEdgeStyle;rounded=0;orthogonalLoop=1;jettySize=auto;html=1;entryX=0;entryY=0.5;entryDx=0;entryDy=0;entryPerimeter=0;exitX=0.5;exitY=1;exitDx=0;exitDy=0;exitPerimeter=0;" parent="1" source="HDn32O2zMlAShSsE0nVU-39" target="HDn32O2zMlAShSsE0nVU-35" edge="1">
          <mxGeometry relative="1" as="geometry">
            <mxPoint x="190" y="970" as="sourcePoint" />
            <Array as="points">
              <mxPoint x="190" y="1100" />
            </Array>
          </mxGeometry>
        </mxCell>
        <mxCell id="HDn32O2zMlAShSsE0nVU-32" value="não" style="text;html=1;align=center;verticalAlign=middle;resizable=0;points=[];autosize=1;strokeColor=none;fillColor=none;" parent="1" vertex="1">
          <mxGeometry x="280" y="715" width="40" height="30" as="geometry" />
        </mxCell>
        <mxCell id="HDn32O2zMlAShSsE0nVU-35" value="Fim" style="strokeWidth=2;html=1;shape=mxgraph.flowchart.terminator;whiteSpace=wrap;" parent="1" vertex="1">
          <mxGeometry x="364" y="1070" width="100" height="60" as="geometry" />
        </mxCell>
        <mxCell id="HDn32O2zMlAShSsE0nVU-38" value="Aluno aprovado" style="strokeWidth=2;html=1;shape=mxgraph.flowchart.display;whiteSpace=wrap;" parent="1" vertex="1">
          <mxGeometry x="580" y="745" width="100" height="60" as="geometry" />
        </mxCell>
        <mxCell id="HDn32O2zMlAShSsE0nVU-39" value="Aluno reprovado" style="strokeWidth=2;html=1;shape=mxgraph.flowchart.display;whiteSpace=wrap;" parent="1" vertex="1">
          <mxGeometry x="150" y="745" width="100" height="60" as="geometry" />
        </mxCell>
        <mxCell id="hug6_IHefqoS9COVQc9g-5" style="edgeStyle=orthogonalEdgeStyle;rounded=0;orthogonalLoop=1;jettySize=auto;html=1;" edge="1" parent="1" source="hug6_IHefqoS9COVQc9g-1" target="HDn32O2zMlAShSsE0nVU-10">
          <mxGeometry relative="1" as="geometry" />
        </mxCell>
        <mxCell id="hug6_IHefqoS9COVQc9g-1" value="Informe a nota 2" style="strokeWidth=2;html=1;shape=mxgraph.flowchart.display;whiteSpace=wrap;" vertex="1" parent="1">
          <mxGeometry x="364" y="260" width="100" height="60" as="geometry" />
        </mxCell>
        <mxCell id="hug6_IHefqoS9COVQc9g-6" style="edgeStyle=orthogonalEdgeStyle;rounded=0;orthogonalLoop=1;jettySize=auto;html=1;" edge="1" parent="1" source="hug6_IHefqoS9COVQc9g-2" target="HDn32O2zMlAShSsE0nVU-8">
          <mxGeometry relative="1" as="geometry" />
        </mxCell>
        <mxCell id="hug6_IHefqoS9COVQc9g-2" value="Informe a nota 3" style="strokeWidth=2;html=1;shape=mxgraph.flowchart.display;whiteSpace=wrap;" vertex="1" parent="1">
          <mxGeometry x="364" y="420" width="100" height="60" as="geometry" />
        </mxCell>
      </root>
    </mxGraphModel>
  </diagram>
</mxfile>
